<svg width="83" height="18" viewBox="0 0 83 18" fill="none" xmlns="http://www.w3.org/2000/svg">
<rect width="83" height="18" rx="8" fill="#D94040" fill-opacity="0.85"/>
<path d="M11.5 6.9125L8.7 9.7125L8 9L12 5L16 9L15.3 9.7125L12.5 6.9125V13H11.5V6.9125Z" fill="#E4E5E9"/>
<path d="M21.0791 13V5.9541H22.3389V8.88379H25.7666V5.9541H27.0215V13H25.7666V9.94336H22.3389V13H21.0791ZM28.7891 7.08203C28.4082 7.08203 28.1104 6.7793 28.1104 6.41797C28.1104 6.04688 28.4082 5.74902 28.7891 5.74902C29.1699 5.74902 29.4629 6.04688 29.4629 6.41797C29.4629 6.7793 29.1699 7.08203 28.7891 7.08203ZM28.1787 13V7.82422H29.3945V13H28.1787ZM32.7637 14.8115C31.3916 14.8115 30.5273 14.1865 30.3809 13.376L30.3711 13.332H31.5674L31.582 13.3711C31.7139 13.6689 32.1289 13.8936 32.7637 13.8936C33.5547 13.8936 33.9893 13.4736 33.9893 12.8145V12.0674H33.9648C33.6768 12.6191 33.0908 12.9707 32.3486 12.9707C31.0498 12.9707 30.2148 11.9746 30.2148 10.3633V10.3584C30.2148 8.72266 31.0596 7.7168 32.3682 7.7168C33.1006 7.7168 33.667 8.10742 33.96 8.70312H33.9893V7.82422H35.2051V12.8535C35.2051 14.0254 34.2627 14.8115 32.7637 14.8115ZM32.7295 12.0332C33.4863 12.0332 33.9941 11.3936 33.9941 10.3877V10.3828C33.9941 9.38184 33.4814 8.74219 32.7295 8.74219C31.9482 8.74219 31.4551 9.37207 31.4551 10.3779V10.3828C31.4551 11.4033 31.9482 12.0332 32.7295 12.0332ZM36.2354 13V5.9541H37.4512V8.69336H37.4805C37.749 8.07324 38.3008 7.7168 39.0771 7.7168C40.1904 7.7168 40.9033 8.52734 40.9033 9.77734V13H39.6875V10.0166C39.6875 9.2207 39.2871 8.74219 38.5889 8.74219C37.9004 8.74219 37.4512 9.26465 37.4512 10.0166V13H36.2354ZM44.0088 13V5.9541H46.7236C48.1494 5.9541 49.1211 6.89648 49.1211 8.30762V8.31738C49.1211 9.72363 48.1494 10.6709 46.7236 10.6709H45.2686V13H44.0088ZM46.4111 6.98438H45.2686V9.65527H46.4111C47.3145 9.65527 47.8418 9.16699 47.8418 8.32227V8.3125C47.8418 7.46777 47.3145 6.98438 46.4111 6.98438ZM49.9219 13V7.82422H51.1377V8.71777H51.1621C51.3232 8.09277 51.7529 7.7168 52.3486 7.7168C52.5 7.7168 52.6416 7.74121 52.7344 7.76562V8.86426C52.6318 8.8252 52.4463 8.7959 52.2412 8.7959C51.5527 8.7959 51.1377 9.23047 51.1377 9.99707V13H49.9219ZM54.0039 7.08203C53.623 7.08203 53.3252 6.7793 53.3252 6.41797C53.3252 6.04688 53.623 5.74902 54.0039 5.74902C54.3848 5.74902 54.6777 6.04688 54.6777 6.41797C54.6777 6.7793 54.3848 7.08203 54.0039 7.08203ZM53.3936 13V7.82422H54.6094V13H53.3936ZM57.9346 13.1025C56.4111 13.1025 55.4297 12.0869 55.4297 10.4121V10.4023C55.4297 8.74219 56.4258 7.7168 57.9297 7.7168C59.4385 7.7168 60.4395 8.73242 60.4395 10.4023V10.4121C60.4395 12.0918 59.4531 13.1025 57.9346 13.1025ZM57.9395 12.1211C58.7061 12.1211 59.1992 11.4961 59.1992 10.4121V10.4023C59.1992 9.32324 58.7012 8.70312 57.9297 8.70312C57.1729 8.70312 56.6699 9.32812 56.6699 10.4023V10.4121C56.6699 11.501 57.1631 12.1211 57.9395 12.1211ZM61.2207 13V7.82422H62.4365V8.71777H62.4609C62.6221 8.09277 63.0518 7.7168 63.6475 7.7168C63.7988 7.7168 63.9404 7.74121 64.0332 7.76562V8.86426C63.9307 8.8252 63.7451 8.7959 63.54 8.7959C62.8516 8.7959 62.4365 9.23047 62.4365 9.99707V13H61.2207ZM65.3027 7.08203C64.9219 7.08203 64.624 6.7793 64.624 6.41797C64.624 6.04688 64.9219 5.74902 65.3027 5.74902C65.6836 5.74902 65.9766 6.04688 65.9766 6.41797C65.9766 6.7793 65.6836 7.08203 65.3027 7.08203ZM64.6924 13V7.82422H65.9082V13H64.6924ZM68.8672 13.1025C67.7832 13.1025 67.2705 12.6631 67.2705 11.5986V8.76172H66.5381V7.82422H67.2705V6.51074H68.5059V7.82422H69.4678V8.76172H68.5059V11.4961C68.5059 12.0039 68.7305 12.165 69.1748 12.165C69.292 12.165 69.3848 12.1504 69.4678 12.1455V13.0586C69.3262 13.0781 69.1113 13.1025 68.8672 13.1025ZM70.9961 14.7188C70.7617 14.7188 70.5176 14.6895 70.3711 14.665V13.7373C70.4639 13.7568 70.6055 13.7812 70.7764 13.7812C71.2402 13.7812 71.499 13.6494 71.6553 13.2148L71.7285 13.0049L69.8682 7.82422H71.1963L72.4072 11.9648H72.4414L73.6572 7.82422H74.9365L73.0762 13.1758C72.6807 14.3135 72.0752 14.7188 70.9961 14.7188Z" fill="#E4E5E9"/>
</svg>
