<svg width="80" height="18" viewBox="0 0 80 18" fill="none" xmlns="http://www.w3.org/2000/svg">
<rect width="80" height="18" rx="8" fill="#40ABD9" fill-opacity="0.85"/>
<path d="M12.5 11.0875L15.3 8.2875L16 9L12 13L8 9L8.7 8.2875L11.5 11.0875V5H12.5V11.0875Z" fill="#E4E5E9"/>
<path d="M20.833 13V5.9541H22.0928V11.9404H25.291V13H20.833ZM28.2646 13.1025C26.7412 13.1025 25.7598 12.0869 25.7598 10.4121V10.4023C25.7598 8.74219 26.7559 7.7168 28.2598 7.7168C29.7686 7.7168 30.7695 8.73242 30.7695 10.4023V10.4121C30.7695 12.0918 29.7832 13.1025 28.2646 13.1025ZM28.2695 12.1211C29.0361 12.1211 29.5293 11.4961 29.5293 10.4121V10.4023C29.5293 9.32324 29.0312 8.70312 28.2598 8.70312C27.5029 8.70312 27 9.32812 27 10.4023V10.4121C27 11.501 27.4932 12.1211 28.2695 12.1211ZM32.5322 13L31.1309 7.82422H32.3516L33.2256 11.7988H33.25L34.2607 7.82422H35.4277L36.4385 11.7988H36.4678L37.3418 7.82422H38.543L37.1416 13H35.8623L34.8418 9.21582H34.8174L33.8018 13H32.5322ZM41.1504 14.709V7.82422H42.3662V8.71777H42.3906C42.6885 8.09766 43.2549 7.7168 43.9971 7.7168C45.3105 7.7168 46.1406 8.74219 46.1406 10.4121V10.417C46.1406 12.0771 45.3105 13.1025 44.0117 13.1025C43.2744 13.1025 42.6836 12.7314 42.3906 12.126H42.3662V14.709H41.1504ZM43.6357 12.0771C44.4121 12.0771 44.9004 11.4375 44.9004 10.417V10.4121C44.9004 9.37695 44.4121 8.74219 43.6357 8.74219C42.8838 8.74219 42.3564 9.39648 42.3564 10.4121V10.417C42.3564 11.4277 42.8838 12.0771 43.6357 12.0771ZM46.9219 13V7.82422H48.1377V8.71777H48.1621C48.3232 8.09277 48.7529 7.7168 49.3486 7.7168C49.5 7.7168 49.6416 7.74121 49.7344 7.76562V8.86426C49.6318 8.8252 49.4463 8.7959 49.2412 8.7959C48.5527 8.7959 48.1377 9.23047 48.1377 9.99707V13H46.9219ZM51.0039 7.08203C50.623 7.08203 50.3252 6.7793 50.3252 6.41797C50.3252 6.04688 50.623 5.74902 51.0039 5.74902C51.3848 5.74902 51.6777 6.04688 51.6777 6.41797C51.6777 6.7793 51.3848 7.08203 51.0039 7.08203ZM50.3936 13V7.82422H51.6094V13H50.3936ZM54.9346 13.1025C53.4111 13.1025 52.4297 12.0869 52.4297 10.4121V10.4023C52.4297 8.74219 53.4258 7.7168 54.9297 7.7168C56.4385 7.7168 57.4395 8.73242 57.4395 10.4023V10.4121C57.4395 12.0918 56.4531 13.1025 54.9346 13.1025ZM54.9395 12.1211C55.7061 12.1211 56.1992 11.4961 56.1992 10.4121V10.4023C56.1992 9.32324 55.7012 8.70312 54.9297 8.70312C54.1729 8.70312 53.6699 9.32812 53.6699 10.4023V10.4121C53.6699 11.501 54.1631 12.1211 54.9395 12.1211ZM58.2207 13V7.82422H59.4365V8.71777H59.4609C59.6221 8.09277 60.0518 7.7168 60.6475 7.7168C60.7988 7.7168 60.9404 7.74121 61.0332 7.76562V8.86426C60.9307 8.8252 60.7451 8.7959 60.54 8.7959C59.8516 8.7959 59.4365 9.23047 59.4365 9.99707V13H58.2207ZM62.3027 7.08203C61.9219 7.08203 61.624 6.7793 61.624 6.41797C61.624 6.04688 61.9219 5.74902 62.3027 5.74902C62.6836 5.74902 62.9766 6.04688 62.9766 6.41797C62.9766 6.7793 62.6836 7.08203 62.3027 7.08203ZM61.6924 13V7.82422H62.9082V13H61.6924ZM65.8672 13.1025C64.7832 13.1025 64.2705 12.6631 64.2705 11.5986V8.76172H63.5381V7.82422H64.2705V6.51074H65.5059V7.82422H66.4678V8.76172H65.5059V11.4961C65.5059 12.0039 65.7305 12.165 66.1748 12.165C66.292 12.165 66.3848 12.1504 66.4678 12.1455V13.0586C66.3262 13.0781 66.1113 13.1025 65.8672 13.1025ZM67.9961 14.7188C67.7617 14.7188 67.5176 14.6895 67.3711 14.665V13.7373C67.4639 13.7568 67.6055 13.7812 67.7764 13.7812C68.2402 13.7812 68.499 13.6494 68.6553 13.2148L68.7285 13.0049L66.8682 7.82422H68.1963L69.4072 11.9648H69.4414L70.6572 7.82422H71.9365L70.0762 13.1758C69.6807 14.3135 69.0752 14.7188 67.9961 14.7188Z" fill="#E4E5E9"/>
</svg>
