<svg width="98" height="18" viewBox="0 0 98 18" fill="none" xmlns="http://www.w3.org/2000/svg">
<rect width="98" height="18" rx="8" fill="#D98740" fill-opacity="0.85"/>
<circle cx="12" cy="9" r="4" fill="#D9D9D9"/>
<path d="M21.0107 13V5.9541H22.4658L24.624 11.335H24.6582L26.8164 5.9541H28.2715V13H27.1387V7.99023H27.0996L25.0684 13H24.2139L22.1826 7.99023H22.1484V13H21.0107ZM31.6699 13.1025C30.1172 13.1025 29.1797 12.0723 29.1797 10.4268V10.4219C29.1797 8.79102 30.1318 7.7168 31.6113 7.7168C33.0908 7.7168 34.0088 8.75684 34.0088 10.3193V10.71H30.3857C30.4053 11.6182 30.9033 12.1553 31.6943 12.1553C32.2998 12.1553 32.6953 11.833 32.8125 11.4863L32.8223 11.4521H33.96L33.9453 11.5059C33.7842 12.3018 33.0225 13.1025 31.6699 13.1025ZM31.626 8.66895C30.9814 8.66895 30.498 9.10352 30.4004 9.89941H32.8271C32.7393 9.0791 32.2705 8.66895 31.626 8.66895ZM36.7188 13.1025C35.4102 13.1025 34.5801 12.0771 34.5801 10.4121V10.4072C34.5801 8.7373 35.415 7.7168 36.7139 7.7168C37.4463 7.7168 38.0371 8.09277 38.3301 8.71289H38.3594V5.9541H39.5752V13H38.3594V12.1211H38.3301C38.0371 12.7314 37.4658 13.1025 36.7188 13.1025ZM37.085 12.0771C37.8369 12.0771 38.3594 11.4277 38.3594 10.4121V10.4072C38.3594 9.39648 37.832 8.74219 37.085 8.74219C36.3086 8.74219 35.8203 9.37695 35.8203 10.4072V10.4121C35.8203 11.4424 36.3037 12.0771 37.085 12.0771ZM41.2402 7.08203C40.8594 7.08203 40.5615 6.7793 40.5615 6.41797C40.5615 6.04688 40.8594 5.74902 41.2402 5.74902C41.6211 5.74902 41.9141 6.04688 41.9141 6.41797C41.9141 6.7793 41.6211 7.08203 41.2402 7.08203ZM40.6299 13V7.82422H41.8457V13H40.6299ZM44.6436 13.1025C43.5059 13.1025 42.8564 12.3701 42.8564 11.1689V7.82422H44.0723V10.9297C44.0723 11.6621 44.4141 12.0771 45.1074 12.0771C45.8057 12.0771 46.25 11.5742 46.25 10.8223V7.82422H47.4658V13H46.25V12.1895H46.2256C45.957 12.7412 45.4248 13.1025 44.6436 13.1025ZM48.4668 13V7.82422H49.6826V8.6543H49.707C49.9268 8.08789 50.459 7.7168 51.1426 7.7168C51.8652 7.7168 52.3877 8.09766 52.5781 8.76172H52.6074C52.8564 8.11719 53.4717 7.7168 54.2188 7.7168C55.2393 7.7168 55.9082 8.41016 55.9082 9.44531V13H54.6924V9.74805C54.6924 9.1084 54.3604 8.74219 53.7646 8.74219C53.1787 8.74219 52.7783 9.17676 52.7783 9.80176V13H51.5967V9.68457C51.5967 9.10352 51.2451 8.74219 50.6787 8.74219C50.0928 8.74219 49.6826 9.20117 49.6826 9.83105V13H48.4668ZM59.0088 13V5.9541H61.7236C63.1494 5.9541 64.1211 6.89648 64.1211 8.30762V8.31738C64.1211 9.72363 63.1494 10.6709 61.7236 10.6709H60.2686V13H59.0088ZM61.4111 6.98438H60.2686V9.65527H61.4111C62.3145 9.65527 62.8418 9.16699 62.8418 8.32227V8.3125C62.8418 7.46777 62.3145 6.98438 61.4111 6.98438ZM64.9219 13V7.82422H66.1377V8.71777H66.1621C66.3232 8.09277 66.7529 7.7168 67.3486 7.7168C67.5 7.7168 67.6416 7.74121 67.7344 7.76562V8.86426C67.6318 8.8252 67.4463 8.7959 67.2412 8.7959C66.5527 8.7959 66.1377 9.23047 66.1377 9.99707V13H64.9219ZM69.0039 7.08203C68.623 7.08203 68.3252 6.7793 68.3252 6.41797C68.3252 6.04688 68.623 5.74902 69.0039 5.74902C69.3848 5.74902 69.6777 6.04688 69.6777 6.41797C69.6777 6.7793 69.3848 7.08203 69.0039 7.08203ZM68.3936 13V7.82422H69.6094V13H68.3936ZM72.9346 13.1025C71.4111 13.1025 70.4297 12.0869 70.4297 10.4121V10.4023C70.4297 8.74219 71.4258 7.7168 72.9297 7.7168C74.4385 7.7168 75.4395 8.73242 75.4395 10.4023V10.4121C75.4395 12.0918 74.4531 13.1025 72.9346 13.1025ZM72.9395 12.1211C73.7061 12.1211 74.1992 11.4961 74.1992 10.4121V10.4023C74.1992 9.32324 73.7012 8.70312 72.9297 8.70312C72.1729 8.70312 71.6699 9.32812 71.6699 10.4023V10.4121C71.6699 11.501 72.1631 12.1211 72.9395 12.1211ZM76.2207 13V7.82422H77.4365V8.71777H77.4609C77.6221 8.09277 78.0518 7.7168 78.6475 7.7168C78.7988 7.7168 78.9404 7.74121 79.0332 7.76562V8.86426C78.9307 8.8252 78.7451 8.7959 78.54 8.7959C77.8516 8.7959 77.4365 9.23047 77.4365 9.99707V13H76.2207ZM80.3027 7.08203C79.9219 7.08203 79.624 6.7793 79.624 6.41797C79.624 6.04688 79.9219 5.74902 80.3027 5.74902C80.6836 5.74902 80.9766 6.04688 80.9766 6.41797C80.9766 6.7793 80.6836 7.08203 80.3027 7.08203ZM79.6924 13V7.82422H80.9082V13H79.6924ZM83.8672 13.1025C82.7832 13.1025 82.2705 12.6631 82.2705 11.5986V8.76172H81.5381V7.82422H82.2705V6.51074H83.5059V7.82422H84.4678V8.76172H83.5059V11.4961C83.5059 12.0039 83.7305 12.165 84.1748 12.165C84.292 12.165 84.3848 12.1504 84.4678 12.1455V13.0586C84.3262 13.0781 84.1113 13.1025 83.8672 13.1025ZM85.9961 14.7188C85.7617 14.7188 85.5176 14.6895 85.3711 14.665V13.7373C85.4639 13.7568 85.6055 13.7812 85.7764 13.7812C86.2402 13.7812 86.499 13.6494 86.6553 13.2148L86.7285 13.0049L84.8682 7.82422H86.1963L87.4072 11.9648H87.4414L88.6572 7.82422H89.9365L88.0762 13.1758C87.6807 14.3135 87.0752 14.7188 85.9961 14.7188Z" fill="#E4E5E9"/>
</svg>
